<?xml version="1.0" encoding="UTF-8"?>
<svg id="_图层_1" data-name="图层 1" xmlns="http://www.w3.org/2000/svg" viewBox="0 0 639.999999999999091 640">
  <defs>
    <style>
      .cls-1 {
        fill: #000;
      }

      .cls-1, .cls-2 {
        stroke-width: 0px;
      }

      .cls-2, .cls-3 {
        fill: none;
      }

      .cls-3 {
        stroke: #000;
        stroke-miterlimit: 10;
        stroke-width: 30px;
      }
    </style>
  </defs>
  <g>
    <line class="cls-3" x1="319.697204589842841" y1="319.5408935546875" x2="478.837280273436591" y2="129.88507080078125"/>
    <path class="cls-1" d="M525.389282226561591,74.406646728515625c-12.2183837890625,34.232696533203125-22.869873046875,80.49005126953125-22.2113037109375,115.256011962890625l-30.4495849609375-52.4971923828125-56.9781494140625-20.86346435546875c34.35205078125-5.388580322265625,78.05712890625-23.910552978515625,109.6390380859375-41.895355224609375Z"/>
  </g>
  <g>
    <line class="cls-3" x1="319.697204589842841" y1="319.5408935546875" x2="75.880371093749091" y2="276.54937744140625"/>
    <path class="cls-1" d="M4.558715820311591,263.973480224609375c35.75555419921875-6.534912109375,81.14129638671875-20.439208984375,110.92022705078125-38.39251708984375l-30.23907470703125,52.618743896484375,10.42083740234375,59.7762451171875c-21.84271240234375-27.055419921875-59.73577880859375-55.64410400390625-91.10198974609375-74.002471923828125Z"/>
  </g>
  <g>
    <line class="cls-3" x1="319.697204589842841" y1="319.5408935546875" x2="404.373901367186591" y2="552.18817138671875"/>
    <path class="cls-1" d="M429.143676757811591,620.24249267578125c-23.5372314453125-27.69775390625-58.27154541015625-60.05078125-88.70904541015625-76.86346435546875l60.68878173828125-.12158203125,46.5572509765625-38.91278076171875c-12.50927734375,32.44403076171875-18.3212890625,79.55474853515625-18.5369873046875,115.8978271484375Z"/>
  </g>
  <circle class="cls-1" cx="161.794011536131393" cy="291.476959613507461" r="39.99906872102332"/>
  <circle class="cls-1" cx="374.754366723208022" cy="470.171915106366214" r="39.999068721022851"/>
  <circle class="cls-1" cx="422.543215454439178" cy="196.973771011382269" r="39.999068721021871"/>
  <circle class="cls-3" cx="319.697197904595669" cy="319.540881910414555" r="159.956467527407483"/>
  <circle class="cls-1" cx="319.369989841839924" cy="319.12663880249147" r="24.999417950639071"/>
  <rect class="cls-2" width="639.999999999999091" height="640"/>
</svg>