<?xml version="1.0" encoding="UTF-8"?>
<svg id="_图层_1" data-name="图层 1" xmlns="http://www.w3.org/2000/svg" viewBox="0 0 639.999999999999091 640">
  <defs>
    <style>
      .cls-1 {
        fill: #000;
      }

      .cls-1, .cls-2 {
        stroke-width: 0px;
      }

      .cls-3 {
        stroke: #000;
        stroke-miterlimit: 10;
        stroke-width: 20px;
      }

      .cls-3, .cls-2 {
        fill: none;
      }
    </style>
  </defs>
  <g>
    <line class="cls-3" x1="319.697204589842841" y1="319.5408935546875" x2="494.354614257811591" y2="111.39227294921875"/>
    <path class="cls-1" d="M525.389282226561591,74.406646728515625c-8.1456298828125,22.821807861328125-15.24658203125,53.6600341796875-14.8074951171875,76.83734130859375l-20.2998046875-34.998138427734375-37.9854736328125-13.908966064453125c22.9013671875-3.592376708984375,52.0380859375-15.94036865234375,73.0927734375-27.93023681640625Z"/>
  </g>
  <g>
    <line class="cls-3" x1="319.697204589842841" y1="319.5408935546875" x2="52.106506347655341" y2="272.357421875"/>
    <path class="cls-1" d="M4.558715820311591,263.973480224609375c23.8370361328125-4.35662841796875,54.09417724609375-13.62615966796875,73.94683837890625-25.595001220703125l-20.159423828125,35.07916259765625,6.94720458984375,39.850830078125c-14.561767578125-18.0369873046875-39.82379150390625-37.09613037109375-60.734619140625-49.334991455078125Z"/>
  </g>
  <g>
    <line class="cls-3" x1="319.697204589842841" y1="319.5408935546875" x2="412.630493164061591" y2="574.87298583984375"/>
    <path class="cls-1" d="M429.143676757811591,620.24249267578125c-15.6915283203125-18.46514892578125-38.84771728515625-40.03387451171875-59.13934326171875-51.2423095703125l40.45916748046875-.0810546875,31.0382080078125-25.94183349609375c-8.339599609375,21.62933349609375-12.2142333984375,53.0364990234375-12.3580322265625,77.26519775390625Z"/>
  </g>
  <circle class="cls-1" cx="161.794011536131393" cy="291.476959613507461" r="39.99906872102332"/>
  <circle class="cls-1" cx="374.754366723208022" cy="470.171915106366214" r="39.999068721022851"/>
  <circle class="cls-1" cx="422.543215454439178" cy="196.973771011382269" r="39.999068721021871"/>
  <circle class="cls-3" cx="319.697197904595669" cy="319.540881910414555" r="159.956467527407483"/>
  <circle class="cls-1" cx="319.369989841838787" cy="319.126638802491016" r="19.999534360510527"/>
  <rect class="cls-2" width="639.999999999999091" height="640"/>
</svg>